<mxfile host="app.diagrams.net" agent="Mozilla/5.0 (Windows NT 10.0; Win64; x64) AppleWebKit/537.36 (KHTML, like Gecko) Chrome/134.0.0.0 Safari/537.36" version="26.2.4">
  <diagram name="Página-1" id="0r1K7LlTwgakD8gTKr0d">
    <mxGraphModel dx="1491" dy="803" grid="1" gridSize="10" guides="1" tooltips="1" connect="1" arrows="1" fold="1" page="1" pageScale="1" pageWidth="827" pageHeight="1169" math="0" shadow="0">
      <root>
        <mxCell id="0" />
        <mxCell id="1" parent="0" />
        <mxCell id="XTzO8M-EnLegnbHQ-fcY-2" value="LINEA" style="swimlane;childLayout=stackLayout;horizontal=1;startSize=50;horizontalStack=0;rounded=1;fontSize=14;fontStyle=0;strokeWidth=2;resizeParent=0;resizeLast=1;shadow=0;dashed=0;align=center;arcSize=4;whiteSpace=wrap;html=1;" vertex="1" parent="1">
          <mxGeometry x="83" y="500" width="180" height="120" as="geometry" />
        </mxCell>
        <mxCell id="XTzO8M-EnLegnbHQ-fcY-3" value="&lt;span style=&quot;background-color: transparent; color: light-dark(rgb(0, 0, 0), rgb(255, 255, 255));&quot;&gt;- ID_Linea (PK)&lt;/span&gt;&lt;br&gt;&lt;span style=&quot;background-color: transparent; color: light-dark(rgb(0, 0, 0), rgb(255, 255, 255));&quot;&gt;- Nombre (Vitamínicos, Antibióticos, etc.)&lt;/span&gt;&lt;br&gt;&lt;span style=&quot;background-color: transparent; color: light-dark(rgb(0, 0, 0), rgb(255, 255, 255));&quot;&gt;- Descripción&lt;/span&gt;" style="align=left;strokeColor=none;fillColor=none;spacingLeft=4;spacingRight=4;fontSize=12;verticalAlign=top;resizable=0;rotatable=0;part=1;html=1;whiteSpace=wrap;" vertex="1" parent="XTzO8M-EnLegnbHQ-fcY-2">
          <mxGeometry y="50" width="180" height="70" as="geometry" />
        </mxCell>
        <mxCell id="XTzO8M-EnLegnbHQ-fcY-4" style="edgeStyle=orthogonalEdgeStyle;rounded=0;orthogonalLoop=1;jettySize=auto;html=1;exitX=0.5;exitY=1;exitDx=0;exitDy=0;" edge="1" parent="XTzO8M-EnLegnbHQ-fcY-2" source="XTzO8M-EnLegnbHQ-fcY-3" target="XTzO8M-EnLegnbHQ-fcY-3">
          <mxGeometry relative="1" as="geometry" />
        </mxCell>
        <mxCell id="XTzO8M-EnLegnbHQ-fcY-5" value="PRODUCTO" style="swimlane;childLayout=stackLayout;horizontal=1;startSize=50;horizontalStack=0;rounded=1;fontSize=14;fontStyle=0;strokeWidth=2;resizeParent=0;resizeLast=1;shadow=0;dashed=0;align=center;arcSize=4;whiteSpace=wrap;html=1;" vertex="1" parent="1">
          <mxGeometry x="90" y="230" width="166" height="140" as="geometry" />
        </mxCell>
        <mxCell id="XTzO8M-EnLegnbHQ-fcY-6" value="&lt;div&gt;- ID_Prod (PK)&lt;/div&gt;&lt;div&gt;&lt;span style=&quot;background-color: transparent; color: light-dark(rgb(0, 0, 0), rgb(255, 255, 255));&quot;&gt;- ID_Linea (FK)&lt;/span&gt;&lt;/div&gt;&lt;div&gt;- NombreCom (Nombre comercial)&lt;/div&gt;&lt;div&gt;&lt;span style=&quot;background-color: transparent; color: light-dark(rgb(0, 0, 0), rgb(255, 255, 255));&quot;&gt;- PrincipioA (Principio activo)&lt;/span&gt;&lt;/div&gt;&lt;div&gt;&lt;br&gt;&lt;/div&gt;" style="align=left;strokeColor=none;fillColor=none;spacingLeft=4;spacingRight=4;fontSize=12;verticalAlign=top;resizable=0;rotatable=0;part=1;html=1;whiteSpace=wrap;" vertex="1" parent="XTzO8M-EnLegnbHQ-fcY-5">
          <mxGeometry y="50" width="166" height="90" as="geometry" />
        </mxCell>
        <mxCell id="XTzO8M-EnLegnbHQ-fcY-8" value="PRESENTACION" style="swimlane;childLayout=stackLayout;horizontal=1;startSize=50;horizontalStack=0;rounded=1;fontSize=14;fontStyle=0;strokeWidth=2;resizeParent=0;resizeLast=1;shadow=0;dashed=0;align=center;arcSize=4;whiteSpace=wrap;html=1;" vertex="1" parent="1">
          <mxGeometry x="560" y="230" width="180" height="170" as="geometry" />
        </mxCell>
        <mxCell id="XTzO8M-EnLegnbHQ-fcY-9" value="&lt;div&gt;- ID_Present (PK)&lt;/div&gt;&lt;div&gt;- ID_Prod (FK)&lt;/div&gt;&lt;div&gt;- ID_Linea (FK)&lt;/div&gt;&lt;div&gt;- Forma (Suspensión, cápsulas, etc.)&lt;/div&gt;&lt;div&gt;- CodigoBarras (Código de producto único)&lt;/div&gt;&lt;div&gt;&lt;br&gt;&lt;/div&gt;" style="align=left;strokeColor=none;fillColor=none;spacingLeft=4;spacingRight=4;fontSize=12;verticalAlign=top;resizable=0;rotatable=0;part=1;html=1;whiteSpace=wrap;" vertex="1" parent="XTzO8M-EnLegnbHQ-fcY-8">
          <mxGeometry y="50" width="180" height="120" as="geometry" />
        </mxCell>
        <mxCell id="XTzO8M-EnLegnbHQ-fcY-13" value="LOTE" style="swimlane;childLayout=stackLayout;horizontal=1;startSize=50;horizontalStack=0;rounded=1;fontSize=14;fontStyle=0;strokeWidth=2;resizeParent=0;resizeLast=1;shadow=0;dashed=0;align=center;arcSize=4;whiteSpace=wrap;html=1;" vertex="1" parent="1">
          <mxGeometry x="546" y="640" width="210" height="170" as="geometry" />
        </mxCell>
        <mxCell id="XTzO8M-EnLegnbHQ-fcY-14" value="&lt;div&gt;- ID_Lote (PK)&lt;/div&gt;&lt;div&gt;- ID_Present (FK)&lt;/div&gt;&lt;div&gt;- NumLote (4 dígitos, 0001-9999)&lt;/div&gt;&lt;div&gt;- FechaFab&lt;/div&gt;&lt;div&gt;- FechaCad&lt;/div&gt;&lt;div&gt;- Cantidad (Unidades producidas, puede diferir del estándar)&lt;/div&gt;&lt;div&gt;&lt;br&gt;&lt;/div&gt;" style="align=left;strokeColor=none;fillColor=none;spacingLeft=4;spacingRight=4;fontSize=12;verticalAlign=top;resizable=0;rotatable=0;part=1;html=1;whiteSpace=wrap;" vertex="1" parent="XTzO8M-EnLegnbHQ-fcY-13">
          <mxGeometry y="50" width="210" height="120" as="geometry" />
        </mxCell>
        <mxCell id="XTzO8M-EnLegnbHQ-fcY-19" value="ESTANTE" style="swimlane;childLayout=stackLayout;horizontal=1;startSize=50;horizontalStack=0;rounded=1;fontSize=14;fontStyle=0;strokeWidth=2;resizeParent=0;resizeLast=1;shadow=0;dashed=0;align=center;arcSize=4;whiteSpace=wrap;html=1;" vertex="1" parent="1">
          <mxGeometry x="71" y="650" width="240" height="130" as="geometry" />
        </mxCell>
        <mxCell id="XTzO8M-EnLegnbHQ-fcY-20" value="&lt;div&gt;-ID_Estante (PK)&lt;/div&gt;&lt;div&gt;-Ubicacion&lt;/div&gt;&lt;div&gt;-Capacidad&lt;/div&gt;&lt;div&gt;&lt;br&gt;&lt;/div&gt;" style="align=left;strokeColor=none;fillColor=none;spacingLeft=4;spacingRight=4;fontSize=12;verticalAlign=top;resizable=0;rotatable=0;part=1;html=1;whiteSpace=wrap;" vertex="1" parent="XTzO8M-EnLegnbHQ-fcY-19">
          <mxGeometry y="50" width="240" height="80" as="geometry" />
        </mxCell>
        <mxCell id="XTzO8M-EnLegnbHQ-fcY-25" style="edgeStyle=orthogonalEdgeStyle;rounded=0;orthogonalLoop=1;jettySize=auto;html=1;exitX=0.5;exitY=1;exitDx=0;exitDy=0;" edge="1" parent="XTzO8M-EnLegnbHQ-fcY-19" source="XTzO8M-EnLegnbHQ-fcY-20" target="XTzO8M-EnLegnbHQ-fcY-20">
          <mxGeometry relative="1" as="geometry" />
        </mxCell>
        <mxCell id="XTzO8M-EnLegnbHQ-fcY-21" value="DETALLE_ESTANTE" style="swimlane;childLayout=stackLayout;horizontal=1;startSize=50;horizontalStack=0;rounded=1;fontSize=14;fontStyle=0;strokeWidth=2;resizeParent=0;resizeLast=1;shadow=0;dashed=0;align=center;arcSize=4;whiteSpace=wrap;html=1;" vertex="1" parent="1">
          <mxGeometry x="75" y="900" width="230" height="140" as="geometry" />
        </mxCell>
        <mxCell id="XTzO8M-EnLegnbHQ-fcY-22" value="&lt;div&gt;-ID_Detalle (PK)&lt;/div&gt;&lt;div&gt;-ID_Lote (FK)&lt;/div&gt;&lt;div&gt;-ID_Estante (FK)&lt;/div&gt;&lt;div&gt;-Cantidad (Unidades almacenadas en este estante)&lt;/div&gt;" style="align=left;strokeColor=none;fillColor=none;spacingLeft=4;spacingRight=4;fontSize=12;verticalAlign=top;resizable=0;rotatable=0;part=1;html=1;whiteSpace=wrap;" vertex="1" parent="XTzO8M-EnLegnbHQ-fcY-21">
          <mxGeometry y="50" width="230" height="90" as="geometry" />
        </mxCell>
        <mxCell id="XTzO8M-EnLegnbHQ-fcY-34" value="Posee" style="shape=rhombus;perimeter=rhombusPerimeter;whiteSpace=wrap;html=1;align=center;" vertex="1" parent="1">
          <mxGeometry x="320" y="270" width="120" height="60" as="geometry" />
        </mxCell>
        <mxCell id="XTzO8M-EnLegnbHQ-fcY-35" value="" style="endArrow=none;html=1;rounded=0;exitX=0;exitY=0.5;exitDx=0;exitDy=0;entryX=1.001;entryY=0.227;entryDx=0;entryDy=0;entryPerimeter=0;" edge="1" parent="1" source="XTzO8M-EnLegnbHQ-fcY-34" target="XTzO8M-EnLegnbHQ-fcY-6">
          <mxGeometry width="50" height="50" relative="1" as="geometry">
            <mxPoint x="540" y="390" as="sourcePoint" />
            <mxPoint x="506" y="300" as="targetPoint" />
          </mxGeometry>
        </mxCell>
        <mxCell id="XTzO8M-EnLegnbHQ-fcY-37" value="1" style="text;html=1;align=center;verticalAlign=middle;whiteSpace=wrap;rounded=0;" vertex="1" parent="1">
          <mxGeometry x="250" y="270" width="60" height="30" as="geometry" />
        </mxCell>
        <mxCell id="XTzO8M-EnLegnbHQ-fcY-38" value="N" style="text;html=1;align=center;verticalAlign=middle;whiteSpace=wrap;rounded=0;" vertex="1" parent="1">
          <mxGeometry x="510" y="270" width="60" height="30" as="geometry" />
        </mxCell>
        <mxCell id="XTzO8M-EnLegnbHQ-fcY-39" value="Pertenece" style="shape=rhombus;perimeter=rhombusPerimeter;whiteSpace=wrap;html=1;align=center;" vertex="1" parent="1">
          <mxGeometry x="590" y="490" width="120" height="60" as="geometry" />
        </mxCell>
        <mxCell id="XTzO8M-EnLegnbHQ-fcY-43" value="" style="endArrow=none;html=1;rounded=0;entryX=1;entryY=0.5;entryDx=0;entryDy=0;exitX=0.002;exitY=0.175;exitDx=0;exitDy=0;exitPerimeter=0;" edge="1" parent="1" source="XTzO8M-EnLegnbHQ-fcY-9" target="XTzO8M-EnLegnbHQ-fcY-34">
          <mxGeometry width="50" height="50" relative="1" as="geometry">
            <mxPoint x="380" y="360" as="sourcePoint" />
            <mxPoint x="430" y="310" as="targetPoint" />
          </mxGeometry>
        </mxCell>
        <mxCell id="XTzO8M-EnLegnbHQ-fcY-44" value="" style="endArrow=none;html=1;rounded=0;entryX=0.5;entryY=1;entryDx=0;entryDy=0;exitX=0.5;exitY=0;exitDx=0;exitDy=0;" edge="1" parent="1" source="XTzO8M-EnLegnbHQ-fcY-39" target="XTzO8M-EnLegnbHQ-fcY-9">
          <mxGeometry width="50" height="50" relative="1" as="geometry">
            <mxPoint x="670" y="470" as="sourcePoint" />
            <mxPoint x="720" y="420" as="targetPoint" />
          </mxGeometry>
        </mxCell>
        <mxCell id="XTzO8M-EnLegnbHQ-fcY-45" value="" style="endArrow=none;html=1;rounded=0;entryX=0.5;entryY=1;entryDx=0;entryDy=0;exitX=0.5;exitY=0;exitDx=0;exitDy=0;" edge="1" parent="1" source="XTzO8M-EnLegnbHQ-fcY-13" target="XTzO8M-EnLegnbHQ-fcY-39">
          <mxGeometry width="50" height="50" relative="1" as="geometry">
            <mxPoint x="501" y="630" as="sourcePoint" />
            <mxPoint x="551" y="580" as="targetPoint" />
          </mxGeometry>
        </mxCell>
        <mxCell id="XTzO8M-EnLegnbHQ-fcY-46" value="1" style="text;html=1;align=center;verticalAlign=middle;whiteSpace=wrap;rounded=0;" vertex="1" parent="1">
          <mxGeometry x="610" y="400" width="60" height="30" as="geometry" />
        </mxCell>
        <mxCell id="XTzO8M-EnLegnbHQ-fcY-47" value="N" style="text;html=1;align=center;verticalAlign=middle;whiteSpace=wrap;rounded=0;" vertex="1" parent="1">
          <mxGeometry x="611" y="610" width="60" height="30" as="geometry" />
        </mxCell>
        <mxCell id="XTzO8M-EnLegnbHQ-fcY-49" value="Se almacena" style="shape=rhombus;perimeter=rhombusPerimeter;whiteSpace=wrap;html=1;align=center;" vertex="1" parent="1">
          <mxGeometry x="371" y="690" width="120" height="60" as="geometry" />
        </mxCell>
        <mxCell id="XTzO8M-EnLegnbHQ-fcY-50" value="" style="endArrow=none;html=1;rounded=0;entryX=1;entryY=0.5;entryDx=0;entryDy=0;exitX=0;exitY=0.25;exitDx=0;exitDy=0;" edge="1" parent="1" source="XTzO8M-EnLegnbHQ-fcY-14" target="XTzO8M-EnLegnbHQ-fcY-49">
          <mxGeometry width="50" height="50" relative="1" as="geometry">
            <mxPoint x="361" y="640" as="sourcePoint" />
            <mxPoint x="411" y="590" as="targetPoint" />
          </mxGeometry>
        </mxCell>
        <mxCell id="XTzO8M-EnLegnbHQ-fcY-51" value="" style="endArrow=none;html=1;rounded=0;entryX=0;entryY=0.5;entryDx=0;entryDy=0;exitX=1;exitY=0.25;exitDx=0;exitDy=0;" edge="1" parent="1" source="XTzO8M-EnLegnbHQ-fcY-20" target="XTzO8M-EnLegnbHQ-fcY-49">
          <mxGeometry width="50" height="50" relative="1" as="geometry">
            <mxPoint x="351" y="850" as="sourcePoint" />
            <mxPoint x="401" y="800" as="targetPoint" />
          </mxGeometry>
        </mxCell>
        <mxCell id="XTzO8M-EnLegnbHQ-fcY-52" value="Detalla" style="shape=rhombus;perimeter=rhombusPerimeter;whiteSpace=wrap;html=1;align=center;" vertex="1" parent="1">
          <mxGeometry x="130" y="810" width="120" height="60" as="geometry" />
        </mxCell>
        <mxCell id="XTzO8M-EnLegnbHQ-fcY-53" value="" style="endArrow=none;html=1;rounded=0;exitX=0.5;exitY=0;exitDx=0;exitDy=0;entryX=0.5;entryY=1;entryDx=0;entryDy=0;" edge="1" parent="1" source="XTzO8M-EnLegnbHQ-fcY-52" target="XTzO8M-EnLegnbHQ-fcY-20">
          <mxGeometry width="50" height="50" relative="1" as="geometry">
            <mxPoint x="281" y="850" as="sourcePoint" />
            <mxPoint x="331" y="800" as="targetPoint" />
          </mxGeometry>
        </mxCell>
        <mxCell id="XTzO8M-EnLegnbHQ-fcY-54" value="" style="endArrow=none;html=1;rounded=0;exitX=0.5;exitY=1;exitDx=0;exitDy=0;entryX=0.5;entryY=0;entryDx=0;entryDy=0;" edge="1" parent="1" source="XTzO8M-EnLegnbHQ-fcY-52" target="XTzO8M-EnLegnbHQ-fcY-21">
          <mxGeometry width="50" height="50" relative="1" as="geometry">
            <mxPoint x="270" y="865" as="sourcePoint" />
            <mxPoint x="320" y="815" as="targetPoint" />
          </mxGeometry>
        </mxCell>
        <mxCell id="XTzO8M-EnLegnbHQ-fcY-55" value="N" style="text;html=1;align=center;verticalAlign=middle;whiteSpace=wrap;rounded=0;" vertex="1" parent="1">
          <mxGeometry x="501" y="690" width="60" height="30" as="geometry" />
        </mxCell>
        <mxCell id="XTzO8M-EnLegnbHQ-fcY-56" value="N" style="text;html=1;align=center;verticalAlign=middle;whiteSpace=wrap;rounded=0;" vertex="1" parent="1">
          <mxGeometry x="301" y="690" width="60" height="30" as="geometry" />
        </mxCell>
        <mxCell id="XTzO8M-EnLegnbHQ-fcY-57" value="1" style="text;html=1;align=center;verticalAlign=middle;whiteSpace=wrap;rounded=0;" vertex="1" parent="1">
          <mxGeometry x="181" y="780" width="60" height="30" as="geometry" />
        </mxCell>
        <mxCell id="XTzO8M-EnLegnbHQ-fcY-58" value="1" style="text;html=1;align=center;verticalAlign=middle;whiteSpace=wrap;rounded=0;" vertex="1" parent="1">
          <mxGeometry x="180" y="870" width="60" height="30" as="geometry" />
        </mxCell>
        <mxCell id="XTzO8M-EnLegnbHQ-fcY-59" value="Detalla" style="shape=rhombus;perimeter=rhombusPerimeter;whiteSpace=wrap;html=1;align=center;" vertex="1" parent="1">
          <mxGeometry x="113" y="400" width="120" height="60" as="geometry" />
        </mxCell>
        <mxCell id="XTzO8M-EnLegnbHQ-fcY-60" value="" style="endArrow=none;html=1;rounded=0;exitX=0.5;exitY=0;exitDx=0;exitDy=0;entryX=0.5;entryY=1;entryDx=0;entryDy=0;" edge="1" parent="1" source="XTzO8M-EnLegnbHQ-fcY-59" target="XTzO8M-EnLegnbHQ-fcY-6">
          <mxGeometry width="50" height="50" relative="1" as="geometry">
            <mxPoint x="280" y="410" as="sourcePoint" />
            <mxPoint x="330" y="360" as="targetPoint" />
          </mxGeometry>
        </mxCell>
        <mxCell id="XTzO8M-EnLegnbHQ-fcY-61" value="" style="endArrow=none;html=1;rounded=0;exitX=0.5;exitY=1;exitDx=0;exitDy=0;entryX=0.5;entryY=0;entryDx=0;entryDy=0;" edge="1" parent="1" source="XTzO8M-EnLegnbHQ-fcY-59" target="XTzO8M-EnLegnbHQ-fcY-2">
          <mxGeometry width="50" height="50" relative="1" as="geometry">
            <mxPoint x="260" y="460" as="sourcePoint" />
            <mxPoint x="310" y="410" as="targetPoint" />
          </mxGeometry>
        </mxCell>
        <mxCell id="XTzO8M-EnLegnbHQ-fcY-62" value="1" style="text;html=1;align=center;verticalAlign=middle;whiteSpace=wrap;rounded=0;" vertex="1" parent="1">
          <mxGeometry x="160" y="370" width="60" height="30" as="geometry" />
        </mxCell>
        <mxCell id="XTzO8M-EnLegnbHQ-fcY-63" value="1" style="text;html=1;align=center;verticalAlign=middle;whiteSpace=wrap;rounded=0;" vertex="1" parent="1">
          <mxGeometry x="161" y="470" width="60" height="30" as="geometry" />
        </mxCell>
        <mxCell id="XTzO8M-EnLegnbHQ-fcY-64" value="&lt;h1 style=&quot;margin-top: 0px;&quot;&gt;Casos de estudio 2: Farmacéutica&lt;/h1&gt;&lt;p&gt;Jorge Manuel Oyoqui Aguilera | A01711783&lt;/p&gt;&lt;p&gt;Horacio Villera Hernández | A01712206&lt;/p&gt;&lt;p&gt;Ricardo Alejandro Andeade Robledo | A01706813&lt;/p&gt;" style="text;html=1;whiteSpace=wrap;overflow=hidden;rounded=0;" vertex="1" parent="1">
          <mxGeometry x="220" y="70" width="420" height="120" as="geometry" />
        </mxCell>
      </root>
    </mxGraphModel>
  </diagram>
</mxfile>
